<svg id="Hdir_logo" data-name="Hdir logo" xmlns="http://www.w3.org/2000/svg" viewBox="0 0 694.6 90.36"><defs><style>.cls-1{fill:#025169;}.cls-2{fill:#047fa4;}.cls-3{fill:#f12891;}.cls-4{fill:#fff;}</style></defs><title>Hdir logo rgb</title><path class="cls-1" d="M275.15,362.25l.2.09a4.31,4.31,0,0,0,5.68-2.16l1.9-4a4.3,4.3,0,0,0-2.17-5.67l-.2-.09a4.29,4.29,0,0,0-5.67,2.16l-1.9,4A4.31,4.31,0,0,0,275.15,362.25Z" transform="translate(-244.55 -350.05)"/><path class="cls-1" d="M290.31,375.94l-.38-.2c-13.06-6.67-37.47-19.6-40.34-21-2.68-1.35-3.3-.54-4.28,1.12s-1.3,2.66.72,4.12c1.32.95,7.34,4.66,11.33,7.65,3,2.28,6,5.36,6.74,8.53l10.69,44.61c.66,2.65,2.13,2.57,3.59,2.36s3-.37,2.86-3.63l-1.45-34.42c-.15-3.27,2.14-4.67,5.06-3.14l5.46,2.7,4.34,2.15,0,0a43.22,43.22,0,0,1,2.32-7.06h0C295.27,378.71,292.38,377,290.31,375.94Z" transform="translate(-244.55 -350.05)"/><path class="cls-2" d="M337.1,353.2a44,44,0,0,0-11.2,1.45c0,.37,0,.75.05,1.12.15,5.18.63,12.69,1.11,16.43.36,2.76.88,5.27,2.91,7.63,1.72,2,3.56,3,6.54,4.37s13.3,5.48,16.26,6.67,2.72,2.22,2.05,4.16-1.32,2.37-4.19,1.54-15.63-5-18.63-5.76c-1.74-.44-2.71-.42-4.05,1.21-3,3.88-2.85,11.36-.69,17.74,1,2.8,2.51,7.67,3.51,10.77s-.61,3.52-1.61,4c-2,.86-3,.86-4.25-1.65s-4.35-11.15-7.84-17.89-7.3-9.71-14.53-14h0l-1.35-.73-6.53-3.48a45.67,45.67,0,0,0-1,5.77c-.13,1.4-.22,2.82-.22,4.27A43.61,43.61,0,1,0,337.1,353.2Zm7,19.59-2.94,3a4.1,4.1,0,0,1-5.79.2l-.15-.14a4.12,4.12,0,0,1-.2-5.79l2.94-3a4.12,4.12,0,0,1,5.79-.2l.15.15A4.09,4.09,0,0,1,344.14,372.79Z" transform="translate(-244.55 -350.05)"/><path class="cls-2" d="M299.55,374.65a44.37,44.37,0,0,0-2.56,5h0l4.19,2.13,1.35.69s7,3.29,9.24,4.18c5.21,2.11,7.73-5.88,7.73-12,0-3.58.1-15.16.1-16.67v-1.11A43.71,43.71,0,0,0,299.55,374.65Z" transform="translate(-244.55 -350.05)"/><polygon class="cls-3" points="52.45 29.6 52.45 29.6 52.45 29.6 52.45 29.6"/><polygon class="cls-3" points="50.1 36.71 50.1 36.71 50.12 36.72 50.12 36.72 50.1 36.71"/><path class="cls-3" d="M294.67,386.72l0,0h0Z" transform="translate(-244.55 -350.05)"/><path class="cls-3" d="M297,379.65h0Z" transform="translate(-244.55 -350.05)"/><path class="cls-4" d="M343.79,366.86a4.12,4.12,0,0,0-5.79.2l-2.94,3a4.12,4.12,0,0,0,.2,5.79l.15.14a4.1,4.1,0,0,0,5.79-.2l2.94-3a4.09,4.09,0,0,0-.2-5.78Z" transform="translate(-244.55 -350.05)"/><path class="cls-4" d="M352.77,390.87c-3-1.19-13.27-5.25-16.26-6.67s-4.82-2.38-6.54-4.37c-2-2.36-2.55-4.87-2.91-7.63-.48-3.74-1-11.25-1.11-16.43,0-.37,0-.75-.05-1.12a44.55,44.55,0,0,0-6.29,2.2V358c0,1.51-.1,13.09-.1,16.67,0,6.14-2.52,14.13-7.73,12-2.21-.89-9.26-4.18-9.24-4.18l-1.35-.69L297,379.65h0a43.22,43.22,0,0,0-2.32,7.06v0h0l6.53,3.48,1.35.73h0c7.23,4.26,11,7.21,14.53,14s6.6,15.33,7.84,17.89,2.27,2.51,4.25,1.65c1-.44,2.62-.88,1.61-4s-2.55-8-3.51-10.77C325.1,403.38,325,395.9,328,392c1.34-1.63,2.31-1.65,4.05-1.21,3,.76,15.76,4.92,18.63,5.76s3.51.42,4.19-1.54S355.72,392.07,352.77,390.87Z" transform="translate(-244.55 -350.05)"/><path class="cls-1" d="M452.85,420.56h-8.49V398.79H422.42v21.77H413.9V371.5h8.52v20.42h21.94V371.5h8.49Z" transform="translate(-244.55 -350.05)"/><path class="cls-1" d="M478,421.23q-7.77,0-12.61-4.9t-4.84-13.06v-1a21.79,21.79,0,0,1,2.11-9.75,16,16,0,0,1,5.91-6.69,15.68,15.68,0,0,1,8.49-2.39q7.44,0,11.51,4.75t4.06,13.44v3.31H468.78a10.91,10.91,0,0,0,3,7.14,9.08,9.08,0,0,0,6.66,2.63,11.09,11.09,0,0,0,9.16-4.55l4.41,4.21a14.68,14.68,0,0,1-5.84,5.07A18.33,18.33,0,0,1,478,421.23ZM477,390a6.89,6.89,0,0,0-5.44,2.36,12.21,12.21,0,0,0-2.65,6.57h15.6v-.61a9.93,9.93,0,0,0-2.19-6.21A6.81,6.81,0,0,0,477,390Z" transform="translate(-244.55 -350.05)"/><path class="cls-1" d="M507.45,420.56h-8.19V370.24h8.19Z" transform="translate(-244.55 -350.05)"/><path class="cls-1" d="M536.59,410.65a3.7,3.7,0,0,0-1.8-3.33,19,19,0,0,0-6-2,31,31,0,0,1-7-2.23q-6.14-3-6.13-8.59a9.71,9.71,0,0,1,4-7.88,15.72,15.72,0,0,1,10.1-3.17q6.54,0,10.57,3.23a10.28,10.28,0,0,1,4,8.39h-8.18a5,5,0,0,0-1.76-3.92,6.7,6.7,0,0,0-4.65-1.57,7.25,7.25,0,0,0-4.39,1.25,3.91,3.91,0,0,0-1.7,3.33,3.32,3.32,0,0,0,1.58,2.94,22,22,0,0,0,6.4,2.1,30.26,30.26,0,0,1,7.56,2.53,10.77,10.77,0,0,1,4.08,3.52,9,9,0,0,1,1.33,5,9.49,9.49,0,0,1-4.08,8q-4.06,3.06-10.68,3.05a19,19,0,0,1-8-1.61,13.18,13.18,0,0,1-5.46-4.45,10.55,10.55,0,0,1-2-6.1h8a5.74,5.74,0,0,0,2.19,4.46A8.48,8.48,0,0,0,530,415.1a8.25,8.25,0,0,0,4.91-1.23A3.79,3.79,0,0,0,536.59,410.65Z" transform="translate(-244.55 -350.05)"/><path class="cls-1" d="M567.61,421.23q-7.77,0-12.61-4.9t-4.84-13.06v-1a21.79,21.79,0,0,1,2.11-9.75,16,16,0,0,1,5.91-6.69,15.68,15.68,0,0,1,8.49-2.39q7.44,0,11.51,4.75t4.06,13.44v3.31H558.42a10.91,10.91,0,0,0,3,7.14,9.06,9.06,0,0,0,6.66,2.63,11.09,11.09,0,0,0,9.16-4.55l4.41,4.21a14.75,14.75,0,0,1-5.84,5.07A18.33,18.33,0,0,1,567.61,421.23Zm-1-31.23a6.89,6.89,0,0,0-5.44,2.36,12.13,12.13,0,0,0-2.65,6.57h15.6v-.61a9.93,9.93,0,0,0-2.19-6.21A6.81,6.81,0,0,0,566.64,390Z" transform="translate(-244.55 -350.05)"/><path class="cls-1" d="M586.85,402.06q0-8.42,3.91-13.53a12.5,12.5,0,0,1,10.47-5.1,11.91,11.91,0,0,1,9.37,4V370.26h8.19v50.3h-7.42l-.4-3.78a12.06,12.06,0,0,1-9.8,4.45,12.46,12.46,0,0,1-10.36-5.15Q586.85,410.92,586.85,402.06Zm8.18.71c0,3.71.72,6.6,2.14,8.68a7,7,0,0,0,6.08,3.11,7.73,7.73,0,0,0,7.35-4.48V394.51a7.63,7.63,0,0,0-7.28-4.37,7,7,0,0,0-6.13,3.14Q595,396.45,595,402.77Z" transform="translate(-244.55 -350.05)"/><path class="cls-1" d="M636.32,420.56h-8.18V384.11h8.18Z" transform="translate(-244.55 -350.05)"/><path class="cls-1" d="M664.78,391.59a20.35,20.35,0,0,0-3.34-.27q-5.62,0-7.58,4.31v24.93h-8.19V384.11h7.82l.2,4.08a9.23,9.23,0,0,1,8.22-4.75,7.59,7.59,0,0,1,2.9.47Z" transform="translate(-244.55 -350.05)"/><path class="cls-1" d="M684.15,421.24a17,17,0,0,1-12.62-4.9q-4.83-4.9-4.83-13.06v-1a21.76,21.76,0,0,1,2.11-9.75,15.92,15.92,0,0,1,5.91-6.69,15.59,15.59,0,0,1,8.49-2.39q7.44,0,11.5,4.75c2.71,3.16,4.07,7.65,4.07,13.44v3.3H675a11,11,0,0,0,3,7.14,9,9,0,0,0,6.65,2.63,11.08,11.08,0,0,0,9.17-4.55l4.41,4.22a14.9,14.9,0,0,1-5.84,5.07A18.33,18.33,0,0,1,684.15,421.24Zm-1-31.23a6.9,6.9,0,0,0-5.45,2.36,12.2,12.2,0,0,0-2.64,6.57h15.6v-.61a10,10,0,0,0-2.19-6.22A6.86,6.86,0,0,0,683.18,390Z" transform="translate(-244.55 -350.05)"/><path class="cls-1" d="M716.76,404.93l-3.64,3.74v11.89h-8.18V370.25h8.18v28.42l2.56-3.21,10.08-11.35h9.84l-13.55,15.2,15,21.25h-9.46Z" transform="translate(-244.55 -350.05)"/><path class="cls-1" d="M751,375.25v8.86h6.43v6.07H751v20.34a4.49,4.49,0,0,0,.82,3,3.83,3.83,0,0,0,3,.93,12.83,12.83,0,0,0,2.86-.34v6.33a20,20,0,0,1-5.39.78q-9.43,0-9.43-10.41V390.18h-6v-6.07h6v-8.86Z" transform="translate(-244.55 -350.05)"/><path class="cls-1" d="M760.92,402a21.54,21.54,0,0,1,2.12-9.65,15.54,15.54,0,0,1,6-6.61,16.86,16.86,0,0,1,8.82-2.3,15.91,15.91,0,0,1,12,4.75q4.61,4.74,5,12.6l0,1.92a21.69,21.69,0,0,1-2.07,9.63,15.32,15.32,0,0,1-5.93,6.57,16.92,16.92,0,0,1-8.91,2.33q-7.71,0-12.35-5.14t-4.63-13.69Zm8.19.71q0,5.63,2.32,8.81a7.57,7.57,0,0,0,6.47,3.18,7.48,7.48,0,0,0,6.45-3.23c1.54-2.16,2.31-5.31,2.31-9.47q0-5.52-2.37-8.76a7.59,7.59,0,0,0-6.46-3.23,7.51,7.51,0,0,0-6.36,3.18C769.89,395.31,769.11,398.49,769.11,402.71Z" transform="translate(-244.55 -350.05)"/><path class="cls-1" d="M820.62,391.59a20.26,20.26,0,0,0-3.34-.27q-5.62,0-7.58,4.31v24.93h-8.19V384.11h7.82l.2,4.08a9.23,9.23,0,0,1,8.22-4.75,7.55,7.55,0,0,1,2.9.47Z" transform="translate(-244.55 -350.05)"/><path class="cls-1" d="M872,375.25v8.86h6.44v6.07H872v20.34a4.49,4.49,0,0,0,.83,3,3.82,3.82,0,0,0,3,.93,12.9,12.9,0,0,0,2.86-.34v6.33a20,20,0,0,1-5.39.78q-9.44,0-9.43-10.41V390.18h-6v-6.07h6v-8.86Z" transform="translate(-244.55 -350.05)"/><path class="cls-1" d="M900.48,421.24q-7.77,0-12.61-4.9T883,403.28v-1a21.76,21.76,0,0,1,2.11-9.75,15.92,15.92,0,0,1,5.91-6.69,15.59,15.59,0,0,1,8.49-2.39q7.44,0,11.51,4.75c2.7,3.16,4.06,7.65,4.06,13.44v3.3H891.29a10.91,10.91,0,0,0,3,7.14A9,9,0,0,0,901,414.7a11.06,11.06,0,0,0,9.16-4.55l4.41,4.22a14.83,14.83,0,0,1-5.84,5.07A18.33,18.33,0,0,1,900.48,421.24Zm-1-31.23a6.86,6.86,0,0,0-5.44,2.36,12.21,12.21,0,0,0-2.65,6.57H907v-.61a10,10,0,0,0-2.19-6.22A6.84,6.84,0,0,0,899.51,390Z" transform="translate(-244.55 -350.05)"/><path class="cls-1" d="M932.51,375.25v8.86H939v6.07h-6.44v20.34a4.43,4.43,0,0,0,.83,3,3.81,3.81,0,0,0,2.94.93,12.92,12.92,0,0,0,2.87-.34v6.33a20.07,20.07,0,0,1-5.39.78q-9.43,0-9.44-10.41V390.18h-6v-6.07h6v-8.86Z" transform="translate(-244.55 -350.05)"/><circle class="cls-1" cx="387.68" cy="24.79" r="4.59"/><path class="cls-1" d="M846.35,420.55a12.58,12.58,0,0,1-.94-3.4,13.76,13.76,0,0,1-18.53.94,10,10,0,0,1-3.47-7.75,10.34,10.34,0,0,1,4.33-8.94q4.32-3.12,12.38-3.12h5v-2.39a6.39,6.39,0,0,0-1.58-4.53,6.28,6.28,0,0,0-4.82-1.7,7.15,7.15,0,0,0-4.58,1.4,4.32,4.32,0,0,0-1.79,3.55h-7.81a9.11,9.11,0,0,1,2-5.61,12.1,12.1,0,0,1,5-4.09,19,19,0,0,1,7.63-1.49q6.4,0,10.21,3.22t3.91,9.05v16.44a21.6,21.6,0,0,0,1.38,8.42h-8.36Zm-9-5.89a9.36,9.36,0,0,0,4.56-1.18,7.87,7.87,0,0,0,3.22-3.17v-6.87h-4.41q-4.56,0-6.84,1.58a5.13,5.13,0,0,0-2.29,4.48,4.8,4.8,0,0,0,1.56,3.76A6.11,6.11,0,0,0,837.36,414.66Z" transform="translate(-244.55 -350.05)"/></svg>