<?xml version="1.0" encoding="utf-8"?>
<!-- Generator: Adobe Illustrator 21.0.0, SVG Export Plug-In . SVG Version: 6.00 Build 0)  -->
<svg version="1.1" id="Layer_1" xmlns="http://www.w3.org/2000/svg" xmlns:xlink="http://www.w3.org/1999/xlink" x="0px" y="0px"
	 viewBox="0 0 3402 3402" style="enable-background:new 0 0 3402 3402;" xml:space="preserve">
<style type="text/css">
	.st0{fill:#FFFFFF;}
	.st2{font-size:152.1429px;}
	.st3{fill:#140089;}
	.st5{font-size:151.6199px;}
	.st6{font-size:121.2959px;}
	.st7{font-size:353.7798px;}
	.st8{fill:#C8C7CC;}
	.st9{font-size:151.6484px;}
	.st10{font-size:121.3187px;}
	.st11{font-size:353.8463px;}
	.st12{fill:#F6303E;}
	.st13{font-size:104.7076px;}
	.st14{fill:#F7323F;}
	.st15{fill:#1D1E1C;}
</style>
<rect id="background" x="0" class="st0" width="3403.7" height="3403.7"/>
<g id="content">
	<g class="stats">
		<text transform="matrix(1 0 0 1 978 992)" class="st1 st5" name="typetext">Jeg har vært røykfri i</text>
		<text transform="matrix(1 0 0 1 800 1400)" text-anchor="middle" class="st4 st7" name="days">314</text>
		<text transform="matrix(1 0 0 1 800 1568)" text-anchor="middle" class="st1 st6">dager</text>
		<text transform="matrix(1 0 0 1 1700 1400)" text-anchor="middle" class="st4 st7" name="hours">16</text>
		<text transform="matrix(1 0 0 1 1700 1568)" text-anchor="middle" class="st1 st6">timer</text>
		<text transform="matrix(1 0 0 1 2600 1400)" text-anchor="middle" class="st4 st7" name="minutes">25</text>
		<text transform="matrix(1 0 0 1 2600 1568)" text-anchor="middle" class="st1 st6">minutter</text>
	</g>
	<g id="Rectangle_4_copy_19">
		<g>
			<rect x="326.5" y="1708" class="st8" width="2746" height="5.1"/>
		</g>
	</g>
	<g class="stats">
		<text transform="matrix(1 0 0 1 978 1950)" class="st1 st9" name="typetext">Jeg har vært snusfri i</text>
		<text transform="matrix(1 0 0 1 800 2350)" text-anchor="middle" class="st4 st11" name="days">314</text>
		<text transform="matrix(1 0 0 1 800 2525)" text-anchor="middle" class="st1 st10">dager</text>
		<text transform="matrix(1 0 0 1 1700 2350)" text-anchor="middle" class="st4 st11" name="hours">16</text>
		<text transform="matrix(1 0 0 1 1700 2525)" text-anchor="middle" class="st1 st10">timer</text>
		<text transform="matrix(1 0 0 1 2600 2350)" text-anchor="middle" class="st4 st11" name="minutes">25</text>
		<text transform="matrix(1 0 0 1 2600 2525)" text-anchor="middle" class="st1 st10">minutter</text>
	</g>
	<text transform="matrix(1 0 0 1 920 2917)" class="st1 st2">og har spart</text>
	<text transform="matrix(1 0 0 1 1780 2917)" class="st3 st4 st2" name="moneysaved">3463,00 kr</text>
	<g id="Rectangle_4_copy_19_1_">
		<g>
			<rect x="326.5" y="2664.9" class="st8" width="2746" height="5.1"/>
		</g>
	</g>
	<g id="Rectangle_4">
		<g>
			<rect y="3168" class="st12" width="3402" height="234"/>
		</g>
	</g>
	
		<text id="Ønsker_du_også_hjelp_til_å_slutte_x3F__Last_ned_appen." transform="matrix(1 0 0 1 548.5791 3321.3135)" class="st0 st1 st13">Ønsker du også hjelp til å slutte? Last ned appen.</text>
</g>
<g id="logo">
	<g id="slutt_x5F_logo">
		<path id="line" class="st14" d="M1178.7,615c261.1-5.3,522,2.5,783.1,3.2c81.6,0.2,163.3-0.5,244.9-2c10.5-0.2,20.5-8,24.6-17.5
			c3.1-7.1,2.6-19.3-8-19.1c-261.4,4.8-522.6-3.2-784-3.6c-81.3-0.1-162.7,0.7-244,2.3c-10.5,0.2-20.5,8-24.6,17.5
			C1167.6,603,1168.1,615.2,1178.7,615L1178.7,615z"/>
		<g id="slutta">
			<path class="st15" d="M2191.4,398.6c-4.1-8.2-15.4-17.7-25-18.2c-1.1-0.1-2.3-0.1-3.5-0.2c-1-2.9-2.1-5.8-3.1-8.7
				c-12.1-34.2-25.3-68-40.5-101c-4.9-10.7-36.5-32.6-42.1-11.8c-17.1,63.8-38.4,126.3-58.8,189.2c-4.7,14.6,28.5,36.8,35.5,19.5
				c7.4-18.2,14.6-36.4,21.7-54.6c19.7,1.6,39.6,2.2,59.6,2.4c5,14.9,10.8,29.4,18.4,42.5c5.1,8.7,14.5,18.5,25.3,19
				c9.3,0.5,14-5.6,11.5-14.9c-4.1-15.6-9.3-31.1-14.7-46.5c3.4,0,6.7,0,10.1,0C2195.8,415.6,2194.3,404.4,2191.4,398.6z
				 M2088.3,379.5c6-16.4,11.8-33,17.3-49.6c4.8,12.1,9.3,24.3,13.7,36.5c1.5,4.2,2.9,8.4,4.4,12.8
				C2111.9,379,2100,379.1,2088.3,379.5z"/>
			<path class="st15" d="M1805.4,250.3c-36.7-0.4-77.4-2.9-113.6,2.6c-22.1,3.4-0.6,26.5,11.3,28.2c12.5,1.8,25.5,2.7,38.6,3.1
				c-0.1,0.8-0.1,1.7-0.1,2.6c0,30.4,0.2,60.9,0.3,91.3c0.1,26,0,49-0.2,70.2c-0.1,20.1,37.1,38.9,37.3,11.1
				c0.3-53.8-0.1-107.7-0.1-161.5c0-4.7-2.1-9.4-5.2-13.4c15.3-0.2,30.6-0.6,45.3-0.6c9.8,0,18.9-6.5,15.4-17
				C1830.7,256,1815.7,250.4,1805.4,250.3z"/>
			<path class="st15" d="M1990.7,247.7c-35.1-1.5-70.7-1.3-105.8,0.8c-29.2,1.8-20.7,37.3,5.6,36.9c5-0.1,10.1-0.1,15.1-0.2
				c-0.7,54.3-1.3,108.6-2.5,162.9c-0.4,20.2,42.3,39.9,44.1,16c4.4-59,0.7-119.2,1-178.4c0-0.2,0-0.3,0-0.5
				c15.7,0.2,31.4,0.6,47.1,1.5c11,0.6,22-8.5,21-19.9C2015.1,254.4,2001.6,248.2,1990.7,247.7z"/>
			<path class="st15" d="M1439.8,446.7c-9.7-1.7-19.6-1.8-29.4-2.2c-2.1-59.7-1.6-119.6-5-179.1c-0.8-14.8-37.4-21.1-39.5-5.6
				c-4.3,30.6-3.7,62.3-4.1,93.2c-0.4,33.2-0.6,66.5,0.6,99.7c0.4,11,13.3,15.3,22.4,16.8c19.8,3.4,43.5,6,63.5,3.1
				c6.7-1,14.7-5.3,12.9-13.2C1459.3,451.2,1446.6,447.9,1439.8,446.7z"/>
			<path class="st15" d="M1247.2,303.8c-0.8-14.3,12.4-26.6,26-27.4c17.9-1,22-21.8,3.8-27.1c-26-7.7-53.6,3.5-67.8,26.7
				c-13.8,22.6-3.6,47,11,66.5c15.9,21.4,46.1,42.2,43.2,72.5c-1,10.1-7.6,23-18.2,25.8c-5.1,1.4-15.1-0.8-18.3-5.6
				c-11.4-17.3-55.9-13.9-43.6,11.5c10.7,22,46.9,31.7,69.1,29.7c27.9-2.6,51.6-22.9,57-50.5c6.3-32.5-17.1-61.3-37.8-83
				C1262.3,333.1,1248,318.1,1247.2,303.8z"/>
			<path class="st15" d="M1598.8,261.3c1.8,34.4,2.8,69.1-1.5,103.4c-1.8,14.3-8.6,71-30,71.6c-25.1,0.7-27.8-49.7-28.7-65.2
				c-1.9-33.5,2.5-67.9-3.3-101c-2-11.4-35.2-29.7-36.2-11.8c-2.4,42-6.4,88,0.2,129.7c5.9,37.4,31.9,69.1,68,81.6
				c91,31.6,79-150.6,77-196.1C1643.4,254.4,1597.4,234.7,1598.8,261.3z"/>
		</g>
	</g>
</g>
</svg>
